<svg width="16" height="16" viewBox="0 0 16 16" fill="none" xmlns="http://www.w3.org/2000/svg">
<g clip-path="url(#clip0_0_102)">
<path d="M11.6821 10.228C11.3141 10.228 11.0154 9.93 11.0154 9.562C11.0154 9.194 11.3134 8.89533 11.6814 8.89533C12.0494 8.89533 12.3481 9.19333 12.3481 9.56133C12.3481 9.92933 12.0501 10.2273 11.6821 10.228ZM4.31806 10.228C3.95006 10.228 3.65139 9.93 3.65139 9.562C3.65139 9.194 3.94939 8.89533 4.31739 8.89533C4.68539 8.89533 4.98406 9.19333 4.98406 9.56133C4.98406 9.92933 4.68606 10.2273 4.31806 10.228ZM11.9207 6.21466L13.2521 3.90866C13.3287 3.776 13.2834 3.60666 13.1507 3.53C13.0181 3.45333 12.8487 3.49866 12.7721 3.63133L11.4241 5.96666C10.3934 5.496 9.23539 5.234 8.00006 5.234C6.76472 5.234 5.60672 5.496 4.57539 5.966L3.22739 3.63133C3.15072 3.49866 2.98139 3.45333 2.84872 3.52933C2.71672 3.606 2.67072 3.77533 2.74739 3.908L4.07872 6.21466C1.79206 7.458 0.228723 9.77266 -0.000610352 12.508H15.9994C15.7707 9.77266 14.2074 7.458 11.9207 6.21466Z" fill="#00EC6D"/>
</g>
<defs>
<clipPath id="clip0_0_102">
<rect width="16" height="16" fill="white"/>
</clipPath>
</defs>
</svg>
