<svg width="16" height="16" viewBox="0 0 16 16" fill="none" xmlns="http://www.w3.org/2000/svg">
<g clip-path="url(#clip0_0_87)">
<path d="M12.364 8.50866C12.38 7.26199 13.0334 6.11066 14.0954 5.458C13.4227 4.49666 12.3354 3.90933 11.1627 3.87266C9.9287 3.74333 8.7327 4.61066 8.10404 4.61066C7.46337 4.61066 6.49537 3.88533 5.4527 3.90666C4.08137 3.95133 2.83337 4.71199 2.16604 5.91133C0.74537 8.37133 1.8047 11.9873 3.16604 13.976C3.84737 14.95 4.6427 16.0373 5.6847 15.9993C6.70404 15.9573 7.0847 15.3493 8.3147 15.3493C9.53337 15.3493 9.8907 15.9993 10.9534 15.9747C12.0467 15.9567 12.736 14.9967 13.3934 14.0133C13.8827 13.3193 14.2594 12.5527 14.5087 11.7413C13.21 11.192 12.3654 9.91933 12.364 8.50866Z" fill="#303030"/>
<path d="M10.3567 2.56467C10.9527 1.84867 11.2467 0.928667 11.1753 0C10.2647 0.096 9.42267 0.531333 8.81867 1.21933C8.22201 1.89867 7.91934 2.78667 7.97801 3.68933C8.90134 3.69867 9.77801 3.284 10.3567 2.56467Z" fill="#303030"/>
</g>
<defs>
<clipPath id="clip0_0_87">
<rect width="16" height="16" fill="white"/>
</clipPath>
</defs>
</svg>
