<svg width="26" height="26" viewBox="0 0 26 26" fill="none" xmlns="http://www.w3.org/2000/svg">
<g clip-path="url(#clip0_0_85)">
<path d="M19.4718 7.7415C19.1122 7.67 18.8186 7.44575 18.668 7.12509C16.9867 3.5815 13.0964 1.60009 9.20507 2.31725C5.6604 2.96725 2.88165 5.79692 2.28907 9.36C2.11357 10.4119 2.12657 11.4649 2.32482 12.4908C2.38982 12.8256 2.24573 13.1983 1.94998 13.4669C0.709568 14.5947 -0.00109863 16.2013 -0.00109863 17.8761C-0.00109863 21.1608 2.67148 23.8344 5.95723 23.8344H17.8739C22.3546 23.8344 25.9989 20.1901 25.9989 15.7094C25.9989 11.8473 23.2537 8.49659 19.4707 7.74259L19.4718 7.7415ZM16.3811 15.9337L13.4485 18.8663C13.0292 19.2855 12.4778 19.4968 11.9264 19.4989L11.9167 19.5011L11.9069 19.4989C11.3555 19.4968 10.8041 19.2855 10.3848 18.8663L7.45224 15.9337C7.02865 15.5101 7.02865 14.8254 7.45224 14.4018C7.87582 13.9783 8.56049 13.9783 8.98407 14.4018L10.8333 16.2511V10.8344C10.8333 10.2353 11.3187 9.75109 11.9167 9.75109C12.5147 9.75109 13 10.2353 13 10.8344V16.2511L14.8492 14.4018C15.2728 13.9783 15.9575 13.9783 16.3811 14.4018C16.8047 14.8254 16.8047 15.5101 16.3811 15.9337Z" fill="#0578BE"/>
</g>
<defs>
<clipPath id="clip0_0_85">
<rect width="26" height="26" fill="white"/>
</clipPath>
</defs>
</svg>
