<svg width="24" height="24" viewBox="0 0 24 24" fill="none" xmlns="http://www.w3.org/2000/svg">
<g clip-path="url(#clip0_0_218)">
<path d="M19 0H5C2.243 0 0 2.243 0 5V19C0 21.757 2.243 24 5 24H19C21.757 24 24 21.757 24 19V5C24 2.243 21.757 0 19 0ZM16 13H13V16C13 16.553 12.552 17 12 17C11.448 17 11 16.553 11 16V13H8C7.448 13 7 12.553 7 12C7 11.447 7.448 11 8 11H11V8C11 7.447 11.448 7 12 7C12.552 7 13 7.447 13 8V11H16C16.552 11 17 11.447 17 12C17 12.553 16.552 13 16 13Z" fill="#5452FC"/>
</g>
<defs>
<clipPath id="clip0_0_218">
<rect width="24" height="24" fill="white"/>
</clipPath>
</defs>
</svg>
